# xmcd
#
# Track frame offsets: 
#        150
#        16670
#        32322
#        49827
#        66892
#        83147
#        99237
#        116122
#        129847
#        143260
#
# Disc length: 2136 seconds
#
# Revision: 2
# Processed by: cddbd v1.4PL0 Copyright (c) Steve Scherf et al.
# Submitted via: ExactAudioCopy v0.90b4
#
DISCID=6d08560a
DTITLE=The Johner Brothers - My Brother and Me
DYEAR=1993
DGENRE=
TTITLE0=My Brother and Me
TTITLE1=That's How the Boys Play
TTITLE2=Leave Your Leavin' Me Alone
TTITLE3=To Keep the Country Boy Alive
TTITLE4=One Horse Town
TTITLE5=Starting Right Now
TTITLE6=If I Had Us
TTITLE7=Light in My Life
TTITLE8=That's Alright
TTITLE9=Smooth Bottom Autumn
EXTD=
EXTT0=
EXTT1=
EXTT2=
EXTT3=
EXTT4=
EXTT5=
EXTT6=
EXTT7=
EXTT8=
EXTT9=
PLAYORDER=
